<svg width="17" height="24" viewBox="0 0 17 24" fill="none" xmlns="http://www.w3.org/2000/svg">
<path d="M4.44848 24C6.65766 24 8.44849 22.2092 8.44849 20V16H4.44848C2.23931 16 0.448471 17.7909 0.448471 20C0.448471 22.2092 2.23931 24 4.44848 24Z" fill="#BDBDBD"/>
<path d="M0.448471 12.0001C0.448471 9.79088 2.23931 8.00004 4.44848 8.00004H8.44849V16H4.44848C2.23931 16 0.448471 14.2091 0.448471 12.0001Z" fill="#BDBDBD"/>
<path d="M0.448471 4.00003C0.448471 1.79085 2.23931 0 4.44848 0H8.44849V8.00004H4.44848C2.23931 8.00004 0.448471 6.20912 0.448471 4.00003Z" fill="#BDBDBD"/>
<path d="M8.44849 0H12.4485C14.6577 0 16.4485 1.79085 16.4485 4.00003C16.4485 6.20912 14.6577 8.00004 12.4485 8.00004H8.44849V0Z" fill="#BDBDBD"/>
<path d="M16.4485 12.0001C16.4485 14.2091 14.6577 16.0001 12.4485 16.0001C10.2393 16.0001 8.44849 14.2091 8.44849 12.0001C8.44849 9.79088 10.2393 8.00004 12.4485 8.00004C14.6577 8.00004 16.4485 9.79088 16.4485 12.0001Z" fill="#BDBDBD"/>
</svg>
