<svg width="25" height="24" viewBox="0 0 25 24" fill="none" xmlns="http://www.w3.org/2000/svg">
<path d="M12.0478 0C5.4212 0 0.047699 5.50845 0.047699 12.3038C0.047699 17.74 3.48609 22.3519 8.2541 23.9788C8.85385 24.0927 9.074 23.712 9.074 23.3869C9.074 23.0936 9.0629 22.1244 9.0577 21.0963C5.71925 21.8406 5.01482 19.6446 5.01482 19.6446C4.46894 18.2224 3.68242 17.8442 3.68242 17.8442C2.59366 17.0807 3.76449 17.0963 3.76449 17.0963C4.96951 17.1831 5.604 18.3643 5.604 18.3643C6.6743 20.2452 8.4113 19.7014 9.09605 19.3871C9.20375 18.5918 9.51475 18.049 9.85795 17.7418C7.19255 17.4307 4.39065 16.3756 4.39065 11.6612C4.39065 10.3179 4.85942 9.2203 5.62705 8.3587C5.50245 8.0488 5.0917 6.79735 5.7433 5.1026C5.7433 5.1026 6.751 4.77193 9.0442 6.3638C10.0014 6.0912 11.028 5.95445 12.0478 5.9498C13.0676 5.95445 14.095 6.0912 15.054 6.3638C17.3444 4.77193 18.3507 5.1026 18.3507 5.1026C19.0038 6.79735 18.5929 8.0488 18.4683 8.3587C19.2377 9.2203 19.7033 10.3179 19.7033 11.6612C19.7033 16.3869 16.8961 17.4274 14.2239 17.732C14.6543 18.1138 15.0379 18.8626 15.0379 20.0105C15.0379 21.6567 15.024 22.9817 15.024 23.3869C15.024 23.7144 15.24 24.098 15.8482 23.9772C20.6137 22.3485 24.0477 17.7381 24.0477 12.3038C24.0477 5.50845 18.675 0 12.0478 0Z" fill="#BDBDBD"/>
<path d="M4.62812 17.5812C4.60174 17.6416 4.50812 17.6598 4.42283 17.6182C4.33596 17.5785 4.28716 17.496 4.31533 17.4353C4.34111 17.373 4.43493 17.3556 4.52161 17.3974C4.60868 17.4371 4.65827 17.5204 4.62812 17.5812ZM5.1133 18.1315C5.05615 18.1854 4.94449 18.1603 4.86872 18.0752C4.79037 17.9903 4.7757 17.8767 4.83361 17.8221C4.89252 17.7682 5.00082 17.7934 5.07935 17.8783C5.1577 17.9643 5.173 18.0771 5.1133 18.1315ZM5.58555 18.8332C5.51215 18.885 5.39215 18.8364 5.318 18.7281C5.2446 18.6197 5.2446 18.4898 5.31955 18.4378C5.39395 18.3857 5.51215 18.4325 5.58735 18.5401C5.66055 18.6502 5.66055 18.7801 5.58555 18.8332ZM6.23255 19.511C6.1669 19.5846 6.0271 19.5649 5.92475 19.4644C5.82 19.3661 5.79085 19.2267 5.8567 19.1531C5.92315 19.0792 6.06375 19.1 6.1669 19.1997C6.27085 19.2977 6.3026 19.4382 6.23255 19.511ZM7.1251 19.9046C7.09615 20 6.9615 20.0434 6.8258 20.0028C6.69035 19.9611 6.6017 19.8493 6.62905 19.7528C6.6572 19.6568 6.7925 19.6117 6.92915 19.655C7.0644 19.6966 7.1533 19.8076 7.1251 19.9046ZM8.10535 19.9776C8.1087 20.0781 7.9937 20.1614 7.85125 20.1632C7.70805 20.1665 7.5922 20.0852 7.59065 19.9863C7.59065 19.8848 7.7031 19.8023 7.8463 19.7999C7.9887 19.7971 8.10535 19.8778 8.10535 19.9776ZM9.01755 19.8196C9.0346 19.9176 8.93565 20.0183 8.7942 20.0452C8.65515 20.071 8.52645 20.0105 8.5088 19.9132C8.49155 19.8127 8.5923 19.712 8.73115 19.6861C8.87275 19.6611 8.9995 19.7199 9.01755 19.8196Z" fill="#BDBDBD"/>
</svg>
