<svg width="26" height="24" viewBox="0 0 26 24" fill="none" xmlns="http://www.w3.org/2000/svg">
<path fill-rule="evenodd" clip-rule="evenodd" d="M6.11092 2.79706C6.11092 4.35191 4.94055 5.596 3.06128 5.596H3.02679C1.21748 5.596 0.047699 4.35191 0.047699 2.79706C0.047699 1.20931 1.25305 0 3.09675 0C4.94055 0 6.07594 1.20931 6.11092 2.79706ZM5.75587 7.80624V23.9996H0.366378V7.80624H5.75587ZM25.1924 23.9996L25.1926 14.7148C25.1926 9.74101 22.5338 7.42603 18.9872 7.42603C16.1257 7.42603 14.8446 8.99772 14.1293 10.1003V7.80674H8.73913C8.81018 9.32621 8.73913 24 8.73913 24H14.1293V14.9563C14.1293 14.4723 14.1643 13.9896 14.3068 13.643C14.6963 12.6762 15.5832 11.6752 17.0721 11.6752C19.0232 11.6752 19.8031 13.1601 19.8031 15.3361V23.9996H25.1924Z" fill="#BDBDBD"/>
</svg>
