<svg width="25" height="24" viewBox="0 0 25 24" fill="none" xmlns="http://www.w3.org/2000/svg">
<path d="M5.84977 15.1661C5.84977 16.5538 4.71615 17.6873 3.32854 17.6873C1.94093 17.6873 0.807404 16.5538 0.807404 15.1661C0.807404 13.7784 1.94093 12.6449 3.32854 12.6449H5.84977V15.1661ZM7.12012 15.1661C7.12012 13.7784 8.25365 12.6449 9.64126 12.6449C11.0289 12.6449 12.1625 13.7784 12.1625 15.1661V21.4788C12.1625 22.8664 11.0289 24 9.64126 24C8.25365 24 7.12012 22.8664 7.12012 21.4788V15.1661Z" fill="#E01E5A"/>
<path d="M9.64126 5.04227C8.25365 5.04227 7.12012 3.90875 7.12012 2.52114C7.12012 1.13352 8.25365 0 9.64126 0C11.0289 0 12.1625 1.13352 12.1625 2.52114V5.04227H9.64126ZM9.64126 6.31262C11.0289 6.31262 12.1625 7.44624 12.1625 8.83385C12.1625 10.2215 11.0289 11.355 9.64126 11.355H3.32854C1.94093 11.355 0.807404 10.2215 0.807404 8.83385C0.807404 7.44624 1.94093 6.31262 3.32854 6.31262H9.64126Z" fill="#36C5F0"/>
<path d="M19.765 8.83385C19.765 7.44624 20.8986 6.31262 22.2862 6.31262C23.6739 6.31262 24.8074 7.44624 24.8074 8.83385C24.8074 10.2215 23.6739 11.355 22.2862 11.355H19.765V8.83385ZM18.4947 8.83385C18.4947 10.2215 17.3612 11.355 15.9736 11.355C14.5859 11.355 13.4523 10.2215 13.4523 8.83385V2.52114C13.4523 1.13352 14.5859 0 15.9736 0C17.3612 0 18.4947 1.13352 18.4947 2.52114V8.83385Z" fill="#2EB67D"/>
<path d="M15.9736 18.9576C17.3612 18.9576 18.4947 20.0912 18.4947 21.4788C18.4947 22.8664 17.3612 24 15.9736 24C14.5859 24 13.4523 22.8664 13.4523 21.4788V18.9576H15.9736ZM15.9736 17.6873C14.5859 17.6873 13.4523 16.5538 13.4523 15.1661C13.4523 13.7784 14.5859 12.6449 15.9736 12.6449H22.2862C23.6739 12.6449 24.8074 13.7784 24.8074 15.1661C24.8074 16.5538 23.6739 17.6873 22.2862 17.6873H15.9736Z" fill="#ECB22E"/>
</svg>
