<svg width="30" height="24" viewBox="0 0 30 24" fill="none" xmlns="http://www.w3.org/2000/svg">
<path d="M14.9089 6.38436L14.9719 7.42249L13.9227 7.29536C10.1035 6.80811 6.76703 5.15561 3.93403 2.38036L2.54915 1.00336L2.1924 2.02024C1.4369 4.28711 1.91953 6.68099 3.4934 8.29099C4.33278 9.18087 4.1439 9.30799 2.69603 8.77837C2.1924 8.60887 1.75165 8.48174 1.70978 8.54524C1.5629 8.69361 2.06653 10.6214 2.46515 11.3841C3.01078 12.4434 4.1229 13.4814 5.34003 14.0957L6.36828 14.583L5.15115 14.6042C3.97603 14.6042 3.93403 14.6254 4.06003 15.0702C4.47965 16.4472 6.13741 17.9091 7.98403 18.5446L9.28516 18.9895L8.15191 19.6674C6.47316 20.642 4.50065 21.1927 2.52815 21.2351C1.58378 21.2564 0.807404 21.341 0.807404 21.4046C0.807404 21.6165 3.36753 22.8029 4.8574 23.2689C9.32703 24.6459 14.6362 24.0527 18.6232 21.7012C21.456 20.0276 24.2889 16.7015 25.6109 13.4814C26.3244 11.7654 27.0379 8.62999 27.0379 7.12586C27.0379 6.15136 27.1008 6.02424 28.2759 4.85911C28.9684 4.18111 29.6189 3.43961 29.7449 3.22786C29.9547 2.82536 29.9338 2.82536 28.8635 3.18549C27.0799 3.82099 26.828 3.73624 27.7094 2.78299C28.3599 2.10499 29.1363 0.876238 29.1363 0.516113C29.1363 0.452612 28.8215 0.558488 28.4648 0.749113C28.0872 0.960988 27.2478 1.27874 26.6182 1.46949L25.485 1.82961L24.4568 1.13049C23.8903 0.749114 23.0928 0.325487 22.6732 0.198362C21.6029 -0.0982626 19.9662 -0.0558869 19.0009 0.283113C16.3778 1.23649 14.72 3.69386 14.9089 6.38436Z" fill="#BDBDBD"/>
</svg>
